<svg width="27" height="26" viewBox="0 0 27 26" fill="none" xmlns="http://www.w3.org/2000/svg">
<path fill-rule="evenodd" clip-rule="evenodd" d="M12.8576 1.04142C13.2297 0.728381 13.773 0.728381 14.1451 1.04142L26.5586 11.4846C27.2725 12.0852 26.8478 13.2498 25.9148 13.2498H24.8016C24.3396 13.2498 24.0002 13.683 24.0002 14.1451V22.4998C24.0002 24.1567 22.6571 25.4998 21.0002 25.4998H18.1801C17.6278 25.4998 17.1801 25.0521 17.1801 24.4998V19.5C17.1801 18.3954 16.2847 17.5 15.1801 17.5H11.8154C10.7108 17.5 9.81538 18.3954 9.81538 19.5V24.4998C9.81538 25.0521 9.36766 25.4998 8.81538 25.4998H6.00064C4.34384 25.4998 3.00072 24.1568 3.00065 22.5L3.00029 14.145C3.00027 13.683 2.66092 13.2498 2.19884 13.2498H1.08793C0.154959 13.2498 -0.269765 12.0852 0.444167 11.4846L12.8576 1.04142Z" fill="#B8B9C6"/>
<path fill-rule="evenodd" clip-rule="evenodd" d="M12.8576 1.04142C13.2297 0.728381 13.773 0.728381 14.1451 1.04142L26.5586 11.4846C27.2725 12.0852 26.8478 13.2498 25.9148 13.2498H24.8016C24.3396 13.2498 24.0002 13.683 24.0002 14.1451V22.4998C24.0002 24.1567 22.6571 25.4998 21.0002 25.4998H18.1801C17.6278 25.4998 17.1801 25.0521 17.1801 24.4998V19.5C17.1801 18.3954 16.2847 17.5 15.1801 17.5H11.8154C10.7108 17.5 9.81538 18.3954 9.81538 19.5V24.4998C9.81538 25.0521 9.36766 25.4998 8.81538 25.4998H6.00064C4.34384 25.4998 3.00072 24.1568 3.00065 22.5L3.00029 14.145C3.00027 13.683 2.66092 13.2498 2.19884 13.2498H1.08793C0.154959 13.2498 -0.269765 12.0852 0.444167 11.4846L12.8576 1.04142Z" fill="url(#paint0_linear_1222_7162)" fill-opacity="0.2"/>
<defs>
<linearGradient id="paint0_linear_1222_7162" x1="13.5014" y1="0.806641" x2="13.5014" y2="25.4998" gradientUnits="userSpaceOnUse">
<stop stop-opacity="0"/>
<stop offset="1"/>
</linearGradient>
</defs>
</svg>
